<svg xmlns="http://www.w3.org/2000/svg" xmlns:xlink="http://www.w3.org/1999/xlink" viewBox="0 0 1019.28 983.44"><defs><style>.cls-1{fill:#fff;}</style><symbol id="New_Symbol_15" data-name="New Symbol 15" viewBox="0 0 128 128.14"><path class="cls-1" d="M64,0A64,64,0,0,0,6.38,91.85a87.19,87.19,0,0,1,9.15,2.23l5.4-5.69a32.1,32.1,0,1,1,48.9,27.87l-3.56,11.68A64,64,0,0,0,64,0Z"/><path class="cls-1" d="M73.7,84.8A21,21,0,0,0,36.37,76h0l-18,19a90.69,90.69,0,0,1,44.77,33.17l10-32.79h0A20.94,20.94,0,0,0,73.7,84.8Z"/></symbol></defs><title>myiworlds0</title><g id="Layer_2" data-name="Layer 2"><g id="Layer_1-2" data-name="Layer 1"><circle class="cls-1" cx="509.43" cy="665.37" r="318.07"/><use width="128" height="128.14" transform="translate(548.24) scale(3.68)" xlink:href="#New_Symbol_15"/><use width="128" height="128.14" transform="matrix(-3.68, 0, 0, 3.68, 471.04, 0)" xlink:href="#New_Symbol_15"/></g></g></svg>